<svg xmlns="http://www.w3.org/2000/svg" width="355.155" height="325.219" viewBox="0 0 355.155 325.219">
  <g id="Logo" transform="translate(134.107 3.5)" opacity="0.202">
    <path id="Path_5" data-name="Path 5" d="M1143.282-.5h.043a162.656,162.656,0,1,1-149.13,97.787h-43.4l.733-.831a345.5,345.5,0,0,1,29.022-29.265,303.144,303.144,0,0,1,28.827-22.766,264.454,264.454,0,0,1,54.573-29.234,234.638,234.638,0,0,1,46.3-12.838A201.053,201.053,0,0,1,1143.282-.5Zm.07,324.219A161.609,161.609,0,1,0,1143.325.5h-.043a200.051,200.051,0,0,0-32.87,2.84,233.634,233.634,0,0,0-46.1,12.783,263.451,263.451,0,0,0-54.366,29.123,302.133,302.133,0,0,0-28.732,22.691,343.89,343.89,0,0,0-28.2,28.349h42.716l-.309.7a161.6,161.6,0,0,0,147.935,226.73Zm.406-283.5a122.852,122.852,0,0,1,24.577,2.478,121.288,121.288,0,0,1,43.609,18.35,122.308,122.308,0,0,1,44.184,53.655,121.35,121.35,0,0,1,7.106,22.893,122.227,122.227,0,0,1-.034,49.136,121.469,121.469,0,0,1-18.378,43.572,122.482,122.482,0,0,1-53.63,44.17,121.522,121.522,0,0,1-22.874,7.121,123,123,0,0,1-24.059,2.5v.027h-.5a122.86,122.86,0,0,1-24.578-2.478,121.289,121.289,0,0,1-43.609-18.35,122.307,122.307,0,0,1-44.184-53.655,121.342,121.342,0,0,1-7.106-22.893,123.137,123.137,0,0,1,0-49.155,121.289,121.289,0,0,1,18.35-43.608A122.307,122.307,0,0,1,1096.288,49.8a121.343,121.343,0,0,1,22.893-7.106A122.851,122.851,0,0,1,1143.758,40.218Zm-.5,242.906V283.1h.5a122.015,122.015,0,0,0,24.358-2.486,120.465,120.465,0,0,0,43.217-18.218,121.479,121.479,0,0,0,43.82-53.183,120.519,120.519,0,0,0,7.067-22.684,121.225,121.225,0,0,0,.034-48.734,120.287,120.287,0,0,0-18.2-43.249,121.31,121.31,0,0,0-53.217-43.823,120.343,120.343,0,0,0-22.7-7.048,122.137,122.137,0,0,0-48.754,0,120.287,120.287,0,0,0-43.249,18.2,121.306,121.306,0,0,0-43.822,53.216,120.337,120.337,0,0,0-7.048,22.7,122.141,122.141,0,0,0,0,48.754,120.289,120.289,0,0,0,18.2,43.249,121.307,121.307,0,0,0,53.217,43.823,120.347,120.347,0,0,0,22.7,7.048A121.834,121.834,0,0,0,1143.26,283.124Zm.5-202.9a82.48,82.48,0,0,1,16.5,1.664,81.439,81.439,0,0,1,29.281,12.322,82.123,82.123,0,0,1,29.667,36.027,81.479,81.479,0,0,1,4.772,15.372,82.265,82.265,0,0,1-.015,33,81.511,81.511,0,0,1-12.334,29.263,82.185,82.185,0,0,1-36.016,29.656,81.54,81.54,0,0,1-15.363,4.776,82.522,82.522,0,0,1-15.994,1.672V244h-.5a82.5,82.5,0,0,1-16.5-1.664,81.444,81.444,0,0,1-29.282-12.322,82.122,82.122,0,0,1-29.668-36.027,81.476,81.476,0,0,1-4.772-15.372,82.682,82.682,0,0,1,0-33,81.441,81.441,0,0,1,12.322-29.281,82.124,82.124,0,0,1,36.028-29.667,81.48,81.48,0,0,1,15.372-4.772A82.494,82.494,0,0,1,1143.76,80.223Zm-.5,162.771v-.023h.5a81.546,81.546,0,0,0,16.293-1.653,80.5,80.5,0,0,0,28.907-12.174,81.187,81.187,0,0,0,29.305-35.569,80.547,80.547,0,0,0,4.722-15.173,81.268,81.268,0,0,0,.015-32.594,80.439,80.439,0,0,0-12.171-28.922,81.126,81.126,0,0,0-35.588-29.306,80.473,80.473,0,0,0-15.182-4.713,81.681,81.681,0,0,0-32.6,0,80.443,80.443,0,0,0-28.923,12.171,81.124,81.124,0,0,0-29.306,35.588,80.473,80.473,0,0,0-4.713,15.183,81.681,81.681,0,0,0,0,32.6,80.438,80.438,0,0,0,12.171,28.922,81.123,81.123,0,0,0,35.589,29.306,80.48,80.48,0,0,0,15.183,4.713A81.478,81.478,0,0,0,1143.26,242.994Zm.5-122.616a41.732,41.732,0,0,1,0,83.463h0a41.732,41.732,0,1,1,0-83.463Zm0,82.463a40.607,40.607,0,1,0-15.855-3.2,40.561,40.561,0,0,0,15.855,3.2Z" transform="translate(-1084.9 -3)" fill="#fff"/>
  </g>
</svg>
